<svg width="360" height="300" viewBox="0 0 360 300" fill="none" xmlns="http://www.w3.org/2000/svg">
  <defs>
    <linearGradient id="grad_bg" x1="40" y1="20" x2="340" y2="280" gradientUnits="userSpaceOnUse">
      <stop stop-color="#03045E" />
      <stop offset="0.5" stop-color="#0077B6" />
      <stop offset="1" stop-color="#90E0EF" />
    </linearGradient>
    <linearGradient id="grad_path" x1="60" y1="70" x2="300" y2="230" gradientUnits="userSpaceOnUse">
      <stop stop-color="#4CC9F0" />
      <stop offset="1" stop-color="#4361EE" />
    </linearGradient>
    <linearGradient id="grad_card" x1="90" y1="120" x2="270" y2="240" gradientUnits="userSpaceOnUse">
      <stop stop-color="#F72585" />
      <stop offset="1" stop-color="#7209B7" />
    </linearGradient>
    <linearGradient id="grad_orbit" x1="40" y1="220" x2="200" y2="320" gradientUnits="userSpaceOnUse">
      <stop stop-color="#48BFE3" stop-opacity="0.35" />
      <stop offset="1" stop-color="#56CFE1" stop-opacity="0.1" />
    </linearGradient>
    <linearGradient id="grad_orbit2" x1="220" y1="200" x2="340" y2="320" gradientUnits="userSpaceOnUse">
      <stop stop-color="#B5179E" stop-opacity="0.25" />
      <stop offset="1" stop-color="#7209B7" stop-opacity="0.1" />
    </linearGradient>
  </defs>
  <rect x="24" y="20" width="312" height="240" rx="32" fill="url(#grad_bg)" opacity="0.18" />
  <rect x="56" y="60" width="248" height="184" rx="28" fill="#0F172A" opacity="0.72" />
  <path d="M84 210C116 188 140 166 172 150C204 134 240 122 276 114" stroke="url(#grad_path)" stroke-width="10" stroke-linecap="round" stroke-linejoin="round" opacity="0.8" />
  <path d="M112 154C130 132 150 118 176 118C202 118 216 134 232 154" stroke="#80FFDB" stroke-width="6" stroke-linecap="round" opacity="0.6" />
  <circle cx="112" cy="154" r="14" fill="#80FFDB" opacity="0.9" />
  <circle cx="176" cy="118" r="12" fill="#48CAE4" opacity="0.9" />
  <circle cx="232" cy="154" r="16" fill="#F72585" opacity="0.7" />
  <rect x="100" y="92" width="160" height="56" rx="16" fill="url(#grad_card)" opacity="0.35" />
  <rect x="114" y="102" width="132" height="36" rx="12" fill="#CAF0F8" opacity="0.18" />
  <rect x="124" y="110" width="80" height="12" rx="6" fill="#80FFDB" opacity="0.9" />
  <rect x="124" y="128" width="56" height="10" rx="5" fill="#80FFDB" opacity="0.5" />
  <rect x="180" y="128" width="48" height="10" rx="5" fill="#80FFDB" opacity="0.35" />
  <rect x="56" y="212" width="120" height="60" rx="24" fill="url(#grad_orbit)" />
  <rect x="208" y="204" width="120" height="68" rx="24" fill="url(#grad_orbit2)" />
  <circle cx="108" cy="240" r="18" fill="#4CC9F0" opacity="0.8" />
  <circle cx="156" cy="232" r="10" fill="#90E0EF" opacity="0.6" />
  <circle cx="260" cy="236" r="16" fill="#F72585" opacity="0.6" />
  <circle cx="304" cy="232" r="12" fill="#7209B7" opacity="0.4" />
</svg>
